<svg width="14" height="14" viewBox="0 0 14 14" fill="none" xmlns="http://www.w3.org/2000/svg">
<path d="M13.1341 12.3516L9.07632 8.29375C9.70601 7.47969 10.0466 6.48438 10.0466 5.4375C10.0466 4.18438 9.55757 3.00937 8.67319 2.12344C7.78882 1.2375 6.61069 0.75 5.35913 0.75C4.10757 0.75 2.92944 1.23906 2.04507 2.12344C1.15913 3.00781 0.671631 4.18438 0.671631 5.4375C0.671631 6.68906 1.16069 7.86719 2.04507 8.75156C2.92944 9.6375 4.10601 10.125 5.35913 10.125C6.40601 10.125 7.39976 9.78438 8.21382 9.15625L12.2716 13.2125C12.2835 13.2244 12.2977 13.2338 12.3132 13.2403C12.3288 13.2467 12.3454 13.2501 12.3623 13.2501C12.3791 13.2501 12.3958 13.2467 12.4113 13.2403C12.4269 13.2338 12.441 13.2244 12.4529 13.2125L13.1341 12.5328C13.146 12.5209 13.1555 12.5068 13.1619 12.4912C13.1684 12.4757 13.1717 12.459 13.1717 12.4422C13.1717 12.4254 13.1684 12.4087 13.1619 12.3931C13.1555 12.3776 13.146 12.3635 13.1341 12.3516V12.3516ZM7.83413 7.9125C7.17163 8.57344 6.29351 8.9375 5.35913 8.9375C4.42476 8.9375 3.54663 8.57344 2.88413 7.9125C2.22319 7.25 1.85913 6.37187 1.85913 5.4375C1.85913 4.50313 2.22319 3.62344 2.88413 2.9625C3.54663 2.30156 4.42476 1.9375 5.35913 1.9375C6.29351 1.9375 7.17319 2.3 7.83413 2.9625C8.49507 3.625 8.85913 4.50313 8.85913 5.4375C8.85913 6.37187 8.49507 7.25156 7.83413 7.9125Z" fill="#595E73"/>
</svg>
