<?xml version="1.0" encoding="UTF-8" standalone="no"?>
<!DOCTYPE svg PUBLIC "-//W3C//DTD SVG 1.1//EN" "http://www.w3.org/Graphics/SVG/1.1/DTD/svg11.dtd">
<svg width="100%" height="100%" viewBox="0 0 18 21" version="1.1" xmlns="http://www.w3.org/2000/svg" xmlns:xlink="http://www.w3.org/1999/xlink" xml:space="preserve" xmlns:serif="http://www.serif.com/" style="fill-rule:evenodd;clip-rule:evenodd;stroke-linejoin:round;stroke-miterlimit:2;">
    <g transform="matrix(1,0,0,0.949998,0,-0.67855)">
        <path d="M17.311,16.476L12.742,9.113L12.742,3.214L13.054,3.214C13.573,3.214 13.99,2.796 13.99,2.277L13.99,1.652C13.99,1.132 13.573,0.714 13.054,0.714L4.945,0.714C4.427,0.714 4.01,1.132 4.01,1.652L4.01,2.277C4.01,2.796 4.427,3.214 4.945,3.214L5.257,3.214L5.257,9.113L0.688,16.476C-0.454,18.316 0.864,20.714 3.031,20.714L14.968,20.714C17.14,20.714 18.453,18.312 17.311,16.476ZM5.643,13.214L7.522,10.183C7.666,9.98 7.748,9.73 7.748,9.464L7.748,3.214L10.243,3.214L10.243,9.464C10.243,9.734 10.329,9.98 10.469,10.183L12.348,13.214L5.643,13.214Z" style="fill:rgb(95,114,128);fill-rule:nonzero;"/>
    </g>
</svg>
