<?xml version="1.0" encoding="UTF-8" standalone="no"?>
<!DOCTYPE svg PUBLIC "-//W3C//DTD SVG 1.1//EN" "http://www.w3.org/Graphics/SVG/1.1/DTD/svg11.dtd">
<svg width="100%" height="100%" viewBox="0 0 28 28" version="1.1" xmlns="http://www.w3.org/2000/svg" xmlns:xlink="http://www.w3.org/1999/xlink" xml:space="preserve" xmlns:serif="http://www.serif.com/" style="fill-rule:evenodd;clip-rule:evenodd;stroke-linejoin:round;stroke-miterlimit:2;">
    <g transform="matrix(1.4359,0,0,1.4,2.51282,-0.40001)">
        <path d="M11.75,9.973L11.75,11.067C11.75,11.325 11.539,11.536 11.281,11.536L4.719,11.536C4.461,11.536 4.25,11.325 4.25,11.067L4.25,9.973C4.25,9.715 4.461,9.504 4.719,9.504L11.281,9.504C11.539,9.504 11.75,9.715 11.75,9.973ZM11.281,12.786L4.719,12.786C4.461,12.786 4.25,12.997 4.25,13.255L4.25,14.348C4.25,14.606 4.461,14.817 4.719,14.817L11.281,14.817C11.539,14.817 11.75,14.606 11.75,14.348L11.75,13.255C11.75,12.997 11.539,12.786 11.281,12.786ZM15.5,5.438L15.5,18.411C15.5,19.446 14.66,20.286 13.625,20.286L2.375,20.286C1.34,20.286 0.5,19.446 0.5,18.411L0.5,2.161C0.5,1.126 1.34,0.286 2.375,0.286L10.348,0.286C10.844,0.286 11.32,0.485 11.672,0.837L14.949,4.114C15.301,4.462 15.5,4.942 15.5,5.438ZM10.5,2.313L10.5,5.286L13.473,5.286L10.5,2.313ZM13.625,18.411L13.625,7.161L9.563,7.161C9.043,7.161 8.625,6.743 8.625,6.223L8.625,2.161L2.375,2.161L2.375,18.411L13.625,18.411Z" style="fill:rgb(95,114,128);fill-rule:nonzero;"/>
    </g>
</svg>
