<?xml version="1.0" encoding="UTF-8" standalone="no"?>
<!DOCTYPE svg PUBLIC "-//W3C//DTD SVG 1.1//EN" "http://www.w3.org/Graphics/SVG/1.1/DTD/svg11.dtd">
<svg width="100%" height="100%" viewBox="0 0 18 21" version="1.1" xmlns="http://www.w3.org/2000/svg" xmlns:xlink="http://www.w3.org/1999/xlink" xml:space="preserve" xmlns:serif="http://www.serif.com/" style="fill-rule:evenodd;clip-rule:evenodd;stroke-linejoin:round;stroke-miterlimit:2;">
    <g transform="matrix(1,0,0,0.950002,0,-0.542871)">
        <path d="M0.268,18.696C0.268,19.732 1.106,20.571 2.139,20.571L15.861,20.571C16.894,20.571 17.732,19.732 17.732,18.696L17.732,8.071L0.268,8.071L0.268,18.696ZM2.763,11.196C2.763,10.853 3.043,10.571 3.386,10.571L14.614,10.571C14.957,10.571 15.237,10.853 15.237,11.196L15.237,13.696C15.237,14.04 14.957,14.321 14.614,14.321L3.386,14.321C3.043,14.321 2.763,14.04 2.763,13.696L2.763,11.196ZM15.861,3.071L13.99,3.071L13.99,1.196C13.99,0.853 13.709,0.571 13.366,0.571L12.119,0.571C11.776,0.571 11.495,0.853 11.495,1.196L11.495,3.071L6.505,3.071L6.505,1.196C6.505,0.853 6.224,0.571 5.881,0.571L4.634,0.571C4.291,0.571 4.01,0.853 4.01,1.196L4.01,3.071L2.139,3.071C1.106,3.071 0.268,3.911 0.268,4.946L0.268,6.821L17.732,6.821L17.732,4.946C17.732,3.911 16.894,3.071 15.861,3.071Z" style="fill:rgb(95,114,128);fill-rule:nonzero;"/>
    </g>
</svg>
