<?xml version="1.0" encoding="UTF-8" standalone="no"?>
<!DOCTYPE svg PUBLIC "-//W3C//DTD SVG 1.1//EN" "http://www.w3.org/Graphics/SVG/1.1/DTD/svg11.dtd">
<svg width="100%" height="100%" viewBox="0 0 16 18" version="1.1" xmlns="http://www.w3.org/2000/svg" xmlns:xlink="http://www.w3.org/1999/xlink" xml:space="preserve" xmlns:serif="http://www.serif.com/" style="fill-rule:evenodd;clip-rule:evenodd;stroke-linejoin:round;stroke-miterlimit:2;">
    <g transform="matrix(0.72353,0,0,0.7,1.49999,1.5)">
        <path d="M16.673,14.152C15.94,13.341 14.568,12.121 14.568,8.125C14.568,5.09 12.501,2.66 9.714,2.064L9.714,1.25C9.714,0.56 9.17,0 8.5,0C7.83,0 7.286,0.56 7.286,1.25L7.286,2.064C4.499,2.66 2.432,5.09 2.432,8.125C2.432,12.121 1.06,13.341 0.327,14.152C0.099,14.404 -0.002,14.705 0,15C0.004,15.641 0.493,16.25 1.218,16.25L15.782,16.25C16.508,16.25 16.996,15.641 17,15C17.002,14.705 16.901,14.403 16.673,14.152ZM2.563,14.375C3.368,13.282 4.248,11.472 4.252,8.148C4.252,8.14 4.25,8.133 4.25,8.125C4.25,5.709 6.153,3.75 8.5,3.75C10.847,3.75 12.75,5.709 12.75,8.125C12.75,8.133 12.748,8.14 12.748,8.148C12.752,11.472 13.632,13.283 14.438,14.375L2.563,14.375ZM8.5,20C9.84,20 10.928,18.881 10.928,17.5L6.073,17.5C6.073,18.881 7.16,20 8.5,20Z" style="fill:rgb(89,94,115);fill-rule:nonzero;"/>
    </g>
</svg>
