<?xml version="1.0" encoding="UTF-8" standalone="no"?>
<!DOCTYPE svg PUBLIC "-//W3C//DTD SVG 1.1//EN" "http://www.w3.org/Graphics/SVG/1.1/DTD/svg11.dtd">
<svg width="100%" height="100%" viewBox="0 0 19 18" version="1.1" xmlns="http://www.w3.org/2000/svg" xmlns:xlink="http://www.w3.org/1999/xlink" xml:space="preserve" xmlns:serif="http://www.serif.com/" style="fill-rule:evenodd;clip-rule:evenodd;stroke-linejoin:round;stroke-miterlimit:2;">
    <g transform="matrix(0.888889,0,0,0.88886,0.203764,1.00026)">
        <path d="M4.978,0.045C5.568,-0.096 6.195,0.124 6.642,0.516C6.98,0.829 7.127,1.28 7.306,1.692C7.71,2.702 8.145,3.698 8.555,4.706C8.759,5.304 8.703,6.044 8.234,6.508C7.79,6.933 7.281,7.285 6.828,7.699C7.712,9.287 9.06,10.615 10.634,11.519C11.104,11.024 11.462,10.421 11.995,9.989C12.499,9.598 13.214,9.548 13.79,9.807C14.925,10.305 16.069,10.784 17.207,11.274C17.766,11.505 18.165,12.029 18.3,12.61C18.412,13.159 18.218,13.699 18.101,14.228C17.898,15.037 17.741,15.857 17.533,16.664C17.345,17.331 16.775,17.877 16.083,17.983C14.969,18.041 13.852,17.923 12.759,17.715C8.298,16.893 4.361,13.887 2.19,9.931C0.941,7.679 0.321,5.093 0.333,2.523C0.327,1.68 1.009,0.935 1.817,0.767C2.875,0.547 3.92,0.27 4.978,0.045ZM4.911,1.765C3.939,2.008 2.948,2.173 1.984,2.447C1.92,4.119 2.245,5.797 2.816,7.366C4.064,10.62 6.539,13.394 9.66,14.955C11.597,15.882 13.751,16.394 15.902,16.325C16.155,15.253 16.419,14.183 16.637,13.104C16.69,12.961 16.622,12.795 16.466,12.762C15.309,12.27 14.163,11.75 12.992,11.294C12.432,11.889 11.967,12.565 11.418,13.17C11.179,13.43 10.779,13.474 10.471,13.315C8.102,12.153 6.142,10.182 4.998,7.805C4.887,7.509 4.927,7.142 5.172,6.924C5.777,6.377 6.445,5.902 7.049,5.354C6.568,4.127 6.021,2.926 5.514,1.707C5.311,1.699 5.108,1.714 4.911,1.765Z" style="fill:rgb(89,94,115);fill-rule:nonzero;"/>
        <path d="M13.066,0.167C13.288,0.014 13.569,0.003 13.829,0.004C14.99,0.008 16.151,0.006 17.312,0.005C17.606,0 17.932,0.064 18.132,0.301C18.308,0.496 18.336,0.77 18.331,1.021C18.323,2.277 18.334,3.532 18.325,4.788C18.342,5.23 17.935,5.625 17.495,5.605C17.098,5.613 16.707,5.286 16.69,4.883C16.662,4.223 16.713,3.561 16.663,2.903C16.406,3.086 16.186,3.312 15.969,3.537C14.639,4.87 13.306,6.199 11.976,7.532C11.763,7.763 11.452,7.923 11.131,7.849C10.554,7.737 10.251,6.948 10.679,6.516C12.249,4.913 13.863,3.353 15.425,1.743C14.696,1.604 13.927,1.811 13.209,1.577C12.643,1.369 12.596,0.501 13.066,0.167Z" style="fill:rgb(89,94,115);fill-rule:nonzero;"/>
    </g>
</svg>
