<svg width="77" height="14" viewBox="0 0 77 14" fill="none" xmlns="http://www.w3.org/2000/svg">
<path d="M1.02148 13C0.611328 13 0.40625 12.7803 0.40625 12.3408V1.05566C0.40625 0.616211 0.611328 0.396484 1.02148 0.396484H3.57031C3.91016 0.396484 4.15332 0.630859 4.2998 1.09961L6.68164 8.80762C6.78711 9.1416 6.86035 9.41699 6.90137 9.63379C6.94238 9.84473 6.97754 10.0967 7.00684 10.3896H7.05957C7.08887 10.0967 7.12402 9.84473 7.16504 9.63379C7.20605 9.41699 7.2793 9.1416 7.38477 8.80762L9.7666 1.09961C9.91309 0.630859 10.1562 0.396484 10.4961 0.396484H13.0449C13.4551 0.396484 13.6602 0.616211 13.6602 1.05566V12.3408C13.6602 12.7803 13.4551 13 13.0449 13H11.709C11.2988 13 11.0938 12.7803 11.0938 12.3408V5.08105C11.0938 4.72949 11.1084 4.37793 11.1377 4.02637H11.0762L8.53613 12.2881C8.38965 12.7627 8.1377 13 7.78027 13H6.28613C5.92871 13 5.67676 12.7627 5.53027 12.2881L2.99023 4.02637H2.92871C2.95801 4.37793 2.97266 4.72949 2.97266 5.08105V12.3408C2.97266 12.7803 2.76758 13 2.35742 13H1.02148ZM17.0879 13C16.6777 13 16.4727 12.7803 16.4727 12.3408V1.05566C16.4727 0.616211 16.6777 0.396484 17.0879 0.396484H24.6289C25.0684 0.396484 25.2881 0.586914 25.2881 0.967773V2.00488C25.2881 2.38574 25.0684 2.57617 24.6289 2.57617H19.0391V5.37109H24.1631C24.6025 5.37109 24.8223 5.56152 24.8223 5.94238V6.97949C24.8223 7.36035 24.6025 7.55078 24.1631 7.55078H19.0391V10.8203H24.9102C25.3496 10.8203 25.5693 11.0107 25.5693 11.3916V12.4287C25.5693 12.8096 25.3496 13 24.9102 13H17.0879ZM28.3379 13C27.9277 13 27.7227 12.7803 27.7227 12.3408V1.05566C27.7227 0.616211 27.9277 0.396484 28.3379 0.396484H31.4053C34.1006 0.396484 35.9229 0.941406 36.8721 2.03125C37.8271 3.12109 38.3047 4.6709 38.3047 6.68066C38.3047 8.69043 37.8271 10.2461 36.8721 11.3477C35.9229 12.4492 34.1006 13 31.4053 13H28.3379ZM30.2891 10.8203H31.2383C33.0547 10.8203 34.2295 10.4834 34.7627 9.80957C35.2959 9.12988 35.5625 8.08691 35.5625 6.68066C35.5625 5.27441 35.2959 4.2373 34.7627 3.56934C34.2295 2.89551 33.0547 2.55859 31.2383 2.55859H30.2891V10.8203ZM39.8164 6.69824C39.8164 4.67676 40.3379 3.07129 41.3809 1.88184C42.4238 0.692383 43.9121 0.0976562 45.8457 0.0976562C47.7793 0.0976562 49.2676 0.692383 50.3105 1.88184C51.3535 3.07129 51.875 4.67676 51.875 6.69824C51.875 8.71973 51.3535 10.3252 50.3105 11.5146C49.2676 12.7041 47.7793 13.2988 45.8457 13.2988C43.9121 13.2988 42.4238 12.7041 41.3809 11.5146C40.3379 10.3252 39.8164 8.71973 39.8164 6.69824ZM42.5586 6.69824C42.5586 8.16309 42.8193 9.28516 43.3408 10.0645C43.8682 10.8379 44.7031 11.2246 45.8457 11.2246C46.9883 11.2246 47.8203 10.8379 48.3418 10.0645C48.8691 9.28516 49.1328 8.16309 49.1328 6.69824C49.1328 5.2334 48.8691 4.11426 48.3418 3.34082C47.8203 2.56152 46.9883 2.17188 45.8457 2.17188C44.7031 2.17188 43.8682 2.56152 43.3408 3.34082C42.8193 4.11426 42.5586 5.2334 42.5586 6.69824ZM54.6523 13C54.2422 13 54.0371 12.7803 54.0371 12.3408V1.05566C54.0371 0.616211 54.2422 0.396484 54.6523 0.396484H57.7197C60.415 0.396484 62.2373 0.941406 63.1865 2.03125C64.1416 3.12109 64.6191 4.6709 64.6191 6.68066C64.6191 8.69043 64.1416 10.2461 63.1865 11.3477C62.2373 12.4492 60.415 13 57.7197 13H54.6523ZM56.6035 10.8203H57.5527C59.3691 10.8203 60.5439 10.4834 61.0771 9.80957C61.6104 9.12988 61.877 8.08691 61.877 6.68066C61.877 5.27441 61.6104 4.2373 61.0771 3.56934C60.5439 2.89551 59.3691 2.55859 57.5527 2.55859H56.6035V10.8203ZM66.9307 12.0596C66.5674 11.7842 66.4795 11.5059 66.667 11.2246L67.3438 10.2051C67.5664 9.87109 67.8916 9.85352 68.3193 10.1523C68.6475 10.3809 69.0752 10.6182 69.6025 10.8643C70.1357 11.1045 70.6953 11.2246 71.2812 11.2246C71.6914 11.2246 72.0869 11.1777 72.4678 11.084C72.8486 10.9902 73.1387 10.8086 73.3379 10.5391C73.5371 10.2695 73.6367 9.9502 73.6367 9.58105C73.6367 9.31738 73.5928 9.08594 73.5049 8.88672C73.417 8.6875 73.2734 8.52344 73.0742 8.39453C72.875 8.26562 72.6699 8.15723 72.459 8.06934C72.0898 7.91699 71.624 7.76758 71.0615 7.62109C70.5049 7.46875 69.9541 7.28711 69.4092 7.07617C68.9229 6.88867 68.4775 6.63086 68.0732 6.30273C67.6689 5.97461 67.3555 5.60547 67.1328 5.19531C66.9102 4.78516 66.7988 4.2373 66.7988 3.55176C66.7988 2.7373 67.0625 2.04004 67.5898 1.45996C68.1172 0.879883 68.7236 0.507813 69.4092 0.34375C70.0947 0.179687 70.7861 0.0976562 71.4834 0.0976562C72.1748 0.0976562 72.8867 0.203125 73.6191 0.414062C74.3574 0.625 74.9141 0.888672 75.2891 1.20508C75.6582 1.51562 75.749 1.79687 75.5615 2.04883L74.8496 3.00684C74.6094 3.33496 74.2871 3.36133 73.8828 3.08594C73.625 2.91016 73.2705 2.71387 72.8193 2.49707C72.374 2.28027 71.9082 2.17188 71.4219 2.17188C71.0762 2.17188 70.7568 2.20117 70.4639 2.25977C70.1768 2.31836 69.9219 2.45898 69.6992 2.68164C69.4766 2.9043 69.3652 3.17969 69.3652 3.50781C69.3652 3.82422 69.4473 4.08203 69.6113 4.28125C69.7754 4.47461 69.957 4.62109 70.1562 4.7207C70.3555 4.81445 70.5576 4.89355 70.7627 4.95801C71.3955 5.16309 71.9609 5.34473 72.459 5.50293C72.957 5.65527 73.417 5.8252 73.8389 6.0127C74.4248 6.27637 74.873 6.54004 75.1836 6.80371C75.4941 7.06738 75.749 7.42773 75.9482 7.88477C76.1533 8.3418 76.2559 8.88672 76.2559 9.51953C76.2559 10.457 75.957 11.2334 75.3594 11.8486C74.7617 12.458 74.0967 12.8506 73.3643 13.0264C72.6377 13.208 71.9287 13.2988 71.2373 13.2988C70.2178 13.2988 69.3887 13.1992 68.75 13C68.1113 12.8066 67.5049 12.4932 66.9307 12.0596Z" fill="#22B2EA"/>
</svg>
