<svg width="27" height="18" viewBox="0 0 27 18" fill="none" xmlns="http://www.w3.org/2000/svg">
<path d="M12.2508 0.0820264C13.8533 -0.211836 15.5015 0.311629 16.8128 1.2091C17.1725 1.47842 17.4725 1.81488 17.7953 2.1239C18.2427 2.57589 18.5155 3.15712 18.8177 3.70513C19.456 3.60405 20.0766 3.35784 20.7349 3.4221C22.4177 3.52101 23.8956 4.92751 24.043 6.57661C22.7081 6.2748 21.2877 6.24231 19.9727 6.65098C18.4292 7.05964 17.1393 8.0452 15.9791 9.08491C14.2919 10.6589 12.8619 12.4871 11.0531 13.9376C9.89802 14.9513 8.58451 15.8033 7.15453 16.3968C5.94421 16.9954 4.47591 17.147 3.20515 16.6373C1.74937 16.1513 0.574436 14.9239 0.159449 13.4748C-0.079372 12.4864 -0.0602076 11.4221 0.286967 10.4596C0.914976 9.00043 2.10466 7.72462 3.64888 7.18527C4.71694 6.79683 5.88525 6.81199 6.99458 6.99683C6.87149 5.77589 7.0108 4.50369 7.60932 3.41199C8.47763 1.64954 10.2666 0.34412 12.2508 0.0820264Z" fill="#22B2EA"/>
<path d="M17.9029 10.6827C19.1199 9.71813 20.5263 8.86759 22.1066 8.66759C24.0083 8.42932 26.0088 9.65242 26.5211 11.4791C26.9626 12.7116 26.6184 14.1123 25.8518 15.1506C25.4192 15.8553 24.6762 16.303 23.9545 16.6791C22.93 17.1838 21.7455 17.1015 20.6332 17.1282C16.8703 17.3167 13.1022 17.3636 9.33857 17.5225C10.3108 17.191 11.2447 16.7434 12.1034 16.186C14.2536 14.5802 15.8509 12.3961 17.9029 10.6827Z" fill="#22B2EA"/>
</svg>
