<?xml version="1.0" encoding="UTF-8" standalone="no"?>
<!DOCTYPE svg PUBLIC "-//W3C//DTD SVG 1.1//EN" "http://www.w3.org/Graphics/SVG/1.1/DTD/svg11.dtd">
<svg width="100%" height="100%" viewBox="0 0 28 28" version="1.1" xmlns="http://www.w3.org/2000/svg" xmlns:xlink="http://www.w3.org/1999/xlink" xml:space="preserve" xmlns:serif="http://www.serif.com/" style="fill-rule:evenodd;clip-rule:evenodd;stroke-linejoin:round;stroke-miterlimit:2;">
    <path d="M8.353,1.421C9.853,0.619 11.823,0.724 13.175,1.781C13.991,2.403 14.495,3.345 14.749,4.325C18.68,4.362 22.613,4.327 26.544,4.343C26.951,4.387 27.424,4.346 27.757,4.629C28.08,4.949 28.058,5.524 27.765,5.854C27.414,6.104 26.963,6.121 26.55,6.129C22.7,6.121 18.851,6.132 15.002,6.123C14.683,6.053 14.695,6.422 14.6,6.622C14.282,7.636 13.569,8.51 12.646,9.033C11.386,9.739 9.778,9.775 8.494,9.108C7.528,8.632 6.776,7.75 6.433,6.73C6.36,6.507 6.275,6.289 6.164,6.082C4.686,6.175 3.202,6.108 1.722,6.121C1.222,6.082 0.65,6.174 0.228,5.844C-0.129,5.454 -0.061,4.706 0.457,4.484C0.769,4.381 1.105,4.368 1.432,4.344C3.042,4.322 4.654,4.365 6.263,4.324C6.504,3.115 7.281,2.031 8.353,1.421ZM9.679,2.722C8.218,3.134 7.453,4.924 8.074,6.288C8.47,7.304 9.563,7.903 10.622,7.903C11.221,7.812 11.827,7.604 12.29,7.202C12.823,6.697 13.119,5.965 13.162,5.239C13.103,4.319 12.648,3.34 11.774,2.935C11.146,2.567 10.37,2.548 9.679,2.722Z" style="fill:rgb(195,198,212);fill-rule:nonzero;"/>
    <path d="M16.246,10.847C17.927,9.131 21.059,9.286 22.565,11.158C23.077,11.723 23.321,12.453 23.558,13.162C24.603,13.135 25.65,13.16 26.697,13.147C27.021,13.153 27.381,13.116 27.665,13.308C28.098,13.623 28.109,14.371 27.654,14.673C27.476,14.855 27.208,14.809 26.982,14.82C25.844,14.815 24.707,14.812 23.571,14.822C23.249,15.916 22.676,16.963 21.709,17.613C20.181,18.63 17.985,18.582 16.548,17.42C15.703,16.782 15.253,15.8 14.94,14.818C10.199,14.813 5.456,14.82 0.715,14.815C0.08,14.79 -0.209,13.927 0.177,13.462C0.394,13.159 0.8,13.141 1.139,13.147C5.74,13.162 10.342,13.135 14.942,13.16C15.246,12.328 15.562,11.452 16.246,10.847ZM18.972,11.361C18.182,11.478 17.398,11.894 16.999,12.61C16.655,13.252 16.439,14.033 16.728,14.739C16.975,15.692 17.819,16.439 18.788,16.589C19.764,16.78 20.838,16.358 21.407,15.54C22.186,14.495 21.995,12.922 21.056,12.041C20.488,11.558 19.72,11.275 18.972,11.361Z" style="fill:rgb(195,198,212);fill-rule:nonzero;"/>
    <path d="M5.527,19.812C7.087,18.019 10.181,17.962 11.824,19.67C12.449,20.282 12.786,21.103 13.057,21.919C17.75,21.925 22.443,21.919 27.137,21.922C27.749,21.862 28.196,22.594 27.914,23.127C27.782,23.499 27.356,23.629 26.997,23.622C22.953,23.625 18.911,23.622 14.867,23.623C14.244,23.625 13.619,23.603 12.997,23.658C12.691,24.983 11.807,26.221 10.517,26.732C9.486,27.191 8.281,27.233 7.224,26.834C5.815,26.382 4.791,25.078 4.499,23.651C3.232,23.571 1.958,23.679 0.692,23.594C0.079,23.528 -0.212,22.703 0.175,22.243C0.327,22.03 0.58,21.906 0.842,21.922C2.031,21.919 3.22,21.921 4.409,21.925C4.728,21.195 4.955,20.397 5.527,19.812ZM7.193,20.619C6.078,21.358 5.81,23.007 6.485,24.127C7.182,25.371 8.94,25.768 10.133,25.009C10.869,24.625 11.196,23.826 11.408,23.071C11.446,22.115 11.05,21.071 10.205,20.557C9.317,19.958 8.056,19.993 7.193,20.619Z" style="fill:rgb(195,198,212);fill-rule:nonzero;"/>
</svg>
