<?xml version="1.0" encoding="UTF-8" standalone="no"?>
<!DOCTYPE svg PUBLIC "-//W3C//DTD SVG 1.1//EN" "http://www.w3.org/Graphics/SVG/1.1/DTD/svg11.dtd">
<svg width="100%" height="100%" viewBox="0 0 28 22" version="1.1" xmlns="http://www.w3.org/2000/svg" xmlns:xlink="http://www.w3.org/1999/xlink" xml:space="preserve" xmlns:serif="http://www.serif.com/" style="fill-rule:evenodd;clip-rule:evenodd;stroke-linejoin:round;stroke-miterlimit:2;">
    <path d="M2.502,0.562C2.823,0.506 3.151,0.499 3.478,0.5C10.663,0.51 17.849,0.49 25.034,0.51C26.595,0.515 27.978,1.849 28,3.349C27.995,8.49 28.005,13.632 27.995,18.774C27.903,20.315 26.377,21.595 24.785,21.494C17.508,21.49 10.229,21.494 2.951,21.492C1.398,21.454 0.051,20.128 0.004,18.635C-0.004,13.58 0.004,8.523 0,3.466C-0.005,2.091 1.094,0.8 2.502,0.562ZM1.556,3.522C9.644,3.547 17.734,3.522 25.822,3.535C26.06,3.509 26.363,3.608 26.535,3.388C26.465,2.594 25.771,1.899 24.918,1.958C17.639,1.953 10.361,1.95 3.083,1.959C2.222,1.907 1.401,2.675 1.556,3.522ZM1.509,4.965C1.475,9.315 1.506,13.666 1.493,18.017C1.494,18.357 1.471,18.708 1.596,19.033C1.792,19.638 2.426,20.078 3.089,20.039C10.365,20.04 17.643,20.039 24.919,20.04C25.371,20.048 25.851,19.892 26.133,19.536C26.502,19.17 26.513,18.625 26.525,18.146C26.516,13.753 26.534,9.358 26.516,4.964C18.181,4.963 9.844,4.961 1.509,4.965Z" style="fill:rgb(195,198,212);fill-rule:nonzero;"/>
    <path d="M8.673,6.584C10.285,6.194 12.046,7.322 12.354,8.886C12.782,10.56 11.362,12.378 9.579,12.446C8.554,12.54 7.493,12.094 6.881,11.293C6.289,10.577 6.11,9.58 6.357,8.702C6.651,7.658 7.579,6.813 8.673,6.584ZM8.724,8.065C7.801,8.371 7.535,9.539 7.97,10.309C8.48,11.189 9.962,11.274 10.576,10.46C11.09,9.875 11.025,8.929 10.456,8.399C10.026,7.947 9.301,7.873 8.724,8.065Z" style="fill:rgb(195,198,212);fill-rule:nonzero;"/>
    <path d="M16.79,8.077C17.018,7.984 17.27,8.01 17.511,8.004C19.504,8.016 21.497,7.991 23.489,8.015C24.09,8.068 24.335,8.879 23.9,9.259C23.71,9.497 23.384,9.458 23.11,9.462C21.064,9.449 19.017,9.472 16.972,9.45C16.273,9.398 16.175,8.318 16.79,8.077Z" style="fill:rgb(195,198,212);fill-rule:nonzero;"/>
    <path d="M16.72,11.126C16.921,11.021 17.158,11.016 17.383,11.012C19.289,11.016 21.197,11.015 23.105,11.012C23.354,11.011 23.618,11.029 23.834,11.164C24.35,11.486 24.127,12.453 23.478,12.445C21.265,12.438 19.05,12.459 16.837,12.435C16.279,12.243 16.221,11.409 16.72,11.126Z" style="fill:rgb(195,198,212);fill-rule:nonzero;"/>
    <path d="M7.662,14.038C8.606,14.002 9.549,14.035 10.494,14.021C11.475,14.011 12.509,14.203 13.293,14.806C14.274,15.515 14.817,16.729 14.743,17.902C14.695,18.475 13.857,18.689 13.463,18.292C13.2,18.049 13.283,17.666 13.2,17.354C13.054,16.475 12.32,15.737 11.416,15.559C10.599,15.415 9.765,15.496 8.94,15.475C8.16,15.486 7.318,15.402 6.615,15.795C5.948,16.123 5.523,16.808 5.441,17.516C5.37,17.8 5.405,18.156 5.123,18.343C4.716,18.678 3.962,18.441 3.918,17.902C3.813,16.45 4.702,14.98 6.088,14.387C6.586,14.18 7.122,14.067 7.662,14.038Z" style="fill:rgb(195,198,212);fill-rule:nonzero;"/>
    <path d="M16.794,14.1C17.066,14.023 17.355,14.028 17.637,14.022C19.458,14.025 21.278,14.023 23.098,14.022C23.384,14.021 23.689,14.051 23.919,14.233C24.178,14.52 24.201,15.007 23.905,15.278C23.705,15.5 23.372,15.456 23.099,15.476C21.19,15.476 19.281,15.474 17.374,15.477C17.118,15.466 16.829,15.489 16.624,15.313C16.239,14.999 16.312,14.29 16.794,14.1Z" style="fill:rgb(195,198,212);fill-rule:nonzero;"/>
</svg>
