<?xml version="1.0" encoding="UTF-8" standalone="no"?>
<!DOCTYPE svg PUBLIC "-//W3C//DTD SVG 1.1//EN" "http://www.w3.org/Graphics/SVG/1.1/DTD/svg11.dtd">
<svg width="100%" height="100%" viewBox="0 0 28 26" version="1.1" xmlns="http://www.w3.org/2000/svg" xmlns:xlink="http://www.w3.org/1999/xlink" xml:space="preserve" xmlns:serif="http://www.serif.com/" style="fill-rule:evenodd;clip-rule:evenodd;stroke-linejoin:round;stroke-miterlimit:2;">
    <path d="M13.271,0.609C14.283,0.463 15.332,0.631 16.28,1.003C17.974,1.713 19.299,3.27 19.683,5.073C19.957,6.147 19.817,7.285 19.409,8.305C18.873,9.666 18.12,10.93 17.318,12.15C16.449,13.359 15.638,14.617 14.661,15.744C14.336,16.154 13.667,16.146 13.345,15.737C12.363,14.592 11.536,13.325 10.663,12.097C9.764,10.699 8.864,9.265 8.395,7.656C7.991,6.361 8.219,4.936 8.804,3.732C9.667,2.05 11.375,0.804 13.271,0.609ZM11.595,2.826C10.573,3.509 9.882,4.642 9.734,5.862C9.561,6.509 9.837,7.147 10.027,7.756C10.405,8.765 10.921,9.721 11.51,10.621C12.283,11.836 13.085,13.041 14.01,14.145C14.914,13.057 15.698,11.876 16.463,10.689C17.261,9.447 18,8.123 18.299,6.664C18.481,4.702 17.074,2.749 15.177,2.243C13.974,1.949 12.621,2.097 11.595,2.826Z" style="fill:rgb(195,198,212);fill-rule:nonzero;"/>
    <path d="M13.67,4.906C14.473,4.594 15.338,5.44 15.108,6.25C14.987,7.03 13.947,7.381 13.34,6.913C12.602,6.434 12.785,5.103 13.67,4.906Z" style="fill:rgb(195,198,212);fill-rule:nonzero;"/>
    <path d="M25.953,7.276C26.334,7.142 26.72,6.914 27.138,7.003C27.641,7.155 28.048,7.654 27.996,8.194C27.992,12.573 27.992,16.95 27.996,21.328C28.04,21.833 27.638,22.26 27.193,22.43C24.871,23.363 22.544,24.288 20.222,25.221C19.944,25.325 19.659,25.495 19.351,25.428C16.785,24.712 14.223,23.978 11.658,23.254C10.624,23.001 9.624,22.611 8.578,22.413C6.212,23.313 3.885,24.321 1.519,25.221C0.789,25.494 -0.051,24.822 0.003,24.061C-0.001,19.725 0.004,15.39 0,11.055C-0.001,10.785 0.023,10.494 0.209,10.282C0.565,9.792 1.204,9.71 1.718,9.466C3.376,8.822 5.006,8.094 6.693,7.53C6.82,8.016 6.998,8.487 7.11,8.976C5.258,9.694 3.42,10.443 1.57,11.162C1.516,11.471 1.492,11.784 1.498,12.099C1.514,15.903 1.484,19.707 1.514,23.51C2.444,23.241 3.326,22.828 4.228,22.475C5.402,22.026 6.565,21.549 7.732,21.082C7.797,19.121 7.694,17.157 7.816,15.199C7.819,14.8 8.224,14.633 8.534,14.501C8.999,14.606 9.364,14.967 9.324,15.47C9.3,16.906 9.303,18.343 9.307,19.78C9.311,20.211 9.268,20.652 9.386,21.074C11.918,21.707 14.405,22.514 16.924,23.194C17.52,23.344 18.092,23.584 18.706,23.653C18.717,20.97 18.706,18.287 18.712,15.603C18.727,15.384 18.711,15.153 18.797,14.948C18.927,14.697 19.222,14.627 19.45,14.502C19.918,14.609 20.258,14.975 20.252,15.469C20.273,18.148 20.261,20.828 20.257,23.507C22.34,22.776 24.361,21.876 26.431,21.104C26.472,20.831 26.499,20.555 26.496,20.279C26.482,16.43 26.508,12.581 26.483,8.731C24.204,9.564 21.968,10.511 19.709,11.394C20.013,10.763 20.349,10.147 20.647,9.51C20.708,9.34 20.903,9.301 21.046,9.224C22.685,8.583 24.32,7.932 25.953,7.276Z" style="fill:rgb(195,198,212);fill-rule:nonzero;"/>
</svg>
