<svg width="20" height="17" viewBox="0 0 20 17" fill="none" xmlns="http://www.w3.org/2000/svg">
<path d="M4 11.8571H1C0.447812 11.8571 0 12.305 0 12.8571V15.8571C0 16.4093 0.447812 16.8571 1 16.8571H4C4.55219 16.8571 5 16.4093 5 15.8571V12.8571C5 12.305 4.55219 11.8571 4 11.8571ZM3.25 9.35715H9.25V10.8571H10.75V9.35715H16.75V10.8571H18.25V9.05746C18.25 8.3959 17.7116 7.85715 17.0497 7.85715H10.75V5.85715H12C12.5522 5.85715 13 5.40933 13 4.85715V1.85715C13 1.30496 12.5522 0.857147 12 0.857147H8C7.44781 0.857147 7 1.30496 7 1.85715V4.85715C7 5.40933 7.44781 5.85715 8 5.85715H9.25V7.85715H2.95031C2.28844 7.85715 1.75 8.39558 1.75 9.05746V10.8571H3.25V9.35715ZM11.5 11.8571H8.5C7.94781 11.8571 7.5 12.305 7.5 12.8571V15.8571C7.5 16.4093 7.94781 16.8571 8.5 16.8571H11.5C12.0522 16.8571 12.5 16.4093 12.5 15.8571V12.8571C12.5 12.305 12.0522 11.8571 11.5 11.8571ZM19 11.8571H16C15.4478 11.8571 15 12.305 15 12.8571V15.8571C15 16.4093 15.4478 16.8571 16 16.8571H19C19.5522 16.8571 20 16.4093 20 15.8571V12.8571C20 12.305 19.5522 11.8571 19 11.8571Z" fill="#5F7280"/>
</svg>
