<svg width="20" height="16" viewBox="0 0 20 16" fill="none" xmlns="http://www.w3.org/2000/svg">
<path d="M18.3333 0.476196H1.66667C0.746528 0.476196 0 1.21206 0 2.11905V14.1667C0 15.0737 0.746528 15.8095 1.66667 15.8095H18.3333C19.2535 15.8095 20 15.0737 20 14.1667V2.11905C20 1.21206 19.2535 0.476196 18.3333 0.476196ZM18.3333 14.1667H10.5278C10.559 14.0127 10.5556 14.2899 10.5556 13.4C10.5556 12.3116 9.51042 11.4286 8.22222 11.4286C7.84722 11.4286 7.57292 11.7024 6.66667 11.7024C5.73264 11.7024 5.50694 11.4286 5.11111 11.4286C3.82292 11.4286 2.77778 12.3116 2.77778 13.4C2.77778 14.2899 2.77083 14.0127 2.80556 14.1667H1.66667V4.30953H18.3333V14.1667ZM12.5 11.4286H16.3889C16.5417 11.4286 16.6667 11.3054 16.6667 11.1548V10.6071C16.6667 10.4566 16.5417 10.3333 16.3889 10.3333H12.5C12.3472 10.3333 12.2222 10.4566 12.2222 10.6071V11.1548C12.2222 11.3054 12.3472 11.4286 12.5 11.4286ZM12.5 9.2381H16.3889C16.5417 9.2381 16.6667 9.11489 16.6667 8.96429V8.41667C16.6667 8.26608 16.5417 8.14286 16.3889 8.14286H12.5C12.3472 8.14286 12.2222 8.26608 12.2222 8.41667V8.96429C12.2222 9.11489 12.3472 9.2381 12.5 9.2381ZM12.5 7.04762H16.3889C16.5417 7.04762 16.6667 6.92441 16.6667 6.77382V6.2262C16.6667 6.0756 16.5417 5.95239 16.3889 5.95239H12.5C12.3472 5.95239 12.2222 6.0756 12.2222 6.2262V6.77382C12.2222 6.92441 12.3472 7.04762 12.5 7.04762ZM6.66667 10.3333C7.89236 10.3333 8.88889 9.35105 8.88889 8.14286C8.88889 6.93468 7.89236 5.95239 6.66667 5.95239C5.44097 5.95239 4.44444 6.93468 4.44444 8.14286C4.44444 9.35105 5.44097 10.3333 6.66667 10.3333Z" fill="#5F7280"/>
</svg>
