<?xml version="1.0" encoding="UTF-8" standalone="no"?>
<!DOCTYPE svg PUBLIC "-//W3C//DTD SVG 1.1//EN" "http://www.w3.org/Graphics/SVG/1.1/DTD/svg11.dtd">
<svg width="100%" height="100%" viewBox="0 0 20 21" version="1.1" xmlns="http://www.w3.org/2000/svg" xmlns:xlink="http://www.w3.org/1999/xlink" xml:space="preserve" xmlns:serif="http://www.serif.com/" style="fill-rule:evenodd;clip-rule:evenodd;stroke-linejoin:round;stroke-miterlimit:2;">
    <g transform="matrix(1,0,0,1,0,-0.511902)">
        <path d="M17.857,20.345L2.143,20.345C0.96,20.345 0,19.393 0,18.22L0,2.637C0,1.464 0.96,0.512 2.143,0.512L17.857,0.512C19.04,0.512 20,1.464 20,2.637L20,18.22C20,19.393 19.04,20.345 17.857,20.345ZM10.63,6.971L4.571,12.979L4.29,15.506C4.254,15.843 4.54,16.131 4.884,16.095L7.433,15.816L13.491,9.809C13.594,9.707 13.594,9.539 13.491,9.432L11.013,6.975C10.902,6.869 10.732,6.869 10.63,6.971ZM15.402,6.404L14.058,5.072C13.638,4.656 12.96,4.656 12.545,5.072L11.513,6.094C11.411,6.196 11.411,6.365 11.513,6.471L13.991,8.928C14.094,9.03 14.263,9.03 14.371,8.928L15.402,7.905C15.817,7.493 15.817,6.821 15.402,6.404Z" style="fill:rgb(95,114,128);fill-rule:nonzero;"/>
    </g>
</svg>
