<?xml version="1.0" encoding="UTF-8" standalone="no"?>
<!DOCTYPE svg PUBLIC "-//W3C//DTD SVG 1.1//EN" "http://www.w3.org/Graphics/SVG/1.1/DTD/svg11.dtd">
<svg width="100%" height="100%" viewBox="0 0 21 20" version="1.1" xmlns="http://www.w3.org/2000/svg" xmlns:xlink="http://www.w3.org/1999/xlink" xml:space="preserve" xmlns:serif="http://www.serif.com/" style="fill-rule:evenodd;clip-rule:evenodd;stroke-linejoin:round;stroke-miterlimit:2;">
    <path d="M10.441,0.19C5.159,0.19 0.857,4.492 0.857,9.774C0.857,15.055 5.159,19.357 10.441,19.357C15.722,19.357 20.024,15.055 20.024,9.774C20.024,4.492 15.722,0.19 10.441,0.19ZM10.441,2.107C14.686,2.107 18.107,5.528 18.107,9.774C18.107,14.019 14.686,17.441 10.441,17.441C6.195,17.441 2.774,14.019 2.774,9.774C2.774,5.528 6.195,2.107 10.441,2.107Z" style="fill:rgb(89,94,115);fill-rule:nonzero;"/>
    <path d="M12.297,6.189C12.297,5.295 11.573,4.571 10.68,4.571C9.787,4.571 9.063,5.295 9.063,6.189C9.063,7.082 9.787,7.806 10.68,7.806C11.573,7.806 12.297,7.082 12.297,6.189Z" style="fill:rgb(89,94,115);fill-rule:nonzero;"/>
    <path d="M12.374,14.814C12.63,14.814 12.836,14.607 12.836,14.352L12.836,13.428C12.836,13.172 12.63,12.965 12.374,12.965L11.912,12.965L11.912,9.115C11.912,8.86 11.705,8.653 11.45,8.653L8.986,8.653C8.731,8.653 8.524,8.86 8.524,9.115L8.524,10.039C8.524,10.294 8.731,10.501 8.986,10.501L9.448,10.501L9.448,12.965L8.986,12.965C8.731,12.965 8.524,13.172 8.524,13.428L8.524,14.352C8.524,14.607 8.731,14.814 8.986,14.814L12.374,14.814Z" style="fill:rgb(89,94,115);fill-rule:nonzero;"/>
</svg>
